M48
;Layer_Color=9474304
;FILE_FORMAT=2:5
INCH,LZ
;TYPE=PLATED
T1F00S00C0.01181
T2F00S00C0.03543
T3F00S00C0.03937
T4F00S00C0.05118
T5F00S00C0.09843
%
T01
X0184646Y0086614
X0208268Y0106299
X0171457Y0129921
X0234252Y0093504
Y0081614
T02
X0025591Y0043307
X0045276Y0122047
X0084646
X0104331Y0043307
T03
X0246063Y0072835
Y0086614
Y0100394
Y0114173
Y0127953
T04
X0147638Y0009843
Y0029528
X0177165
Y0009843
Y0108268
X0162402
X0147638
T05
X0025591Y0017717
X0104331
X0220472
M30
