G04*
G04 #@! TF.GenerationSoftware,Altium Limited,Altium Designer,19.0.5 (141)*
G04*
G04 Layer_Physical_Order=1*
G04 Layer_Color=255*
%FSLAX25Y25*%
%MOIN*%
G70*
G01*
G75*
%ADD19C,0.02362*%
%ADD20C,0.11811*%
%ADD21R,0.15748X0.15748*%
%ADD22C,0.15748*%
%ADD23C,0.09843*%
%ADD24R,0.09843X0.09843*%
%ADD25O,0.13780X0.09843*%
%ADD26O,0.09843X0.11811*%
%ADD27R,0.25591X0.17717*%
%ADD28C,0.02362*%
G36*
X253937Y66929D02*
X249021D01*
X248895Y67429D01*
X249470Y67736D01*
X250399Y68499D01*
X251162Y69428D01*
X251728Y70488D01*
X252077Y71638D01*
X252195Y72835D01*
X252077Y74031D01*
X251728Y75181D01*
X251162Y76241D01*
X250399Y77171D01*
X249470Y77933D01*
X248410Y78500D01*
X247259Y78849D01*
X246063Y78966D01*
X244867Y78849D01*
X243716Y78500D01*
X242656Y77933D01*
X241727Y77171D01*
X240965Y76241D01*
X240398Y75181D01*
X240049Y74031D01*
X239931Y72835D01*
X240049Y71638D01*
X240398Y70488D01*
X240965Y69428D01*
X241727Y68499D01*
X242656Y67736D01*
X243231Y67429D01*
X243106Y66929D01*
X135827D01*
Y108268D01*
X1969D01*
Y135827D01*
X253937D01*
Y66929D01*
D02*
G37*
%LPC*%
G36*
X171957Y132046D02*
Y130421D01*
X173581D01*
X173511Y130772D01*
X173029Y131494D01*
X172308Y131976D01*
X171957Y132046D01*
D02*
G37*
G36*
X170957D02*
X170606Y131976D01*
X169884Y131494D01*
X169402Y130772D01*
X169332Y130421D01*
X170957D01*
Y132046D01*
D02*
G37*
G36*
X173581Y129421D02*
X171957D01*
Y127797D01*
X172308Y127867D01*
X173029Y128349D01*
X173511Y129070D01*
X173581Y129421D01*
D02*
G37*
G36*
X170957D02*
X169332D01*
X169402Y129070D01*
X169884Y128349D01*
X170606Y127867D01*
X170957Y127797D01*
Y129421D01*
D02*
G37*
G36*
X45776Y128937D02*
Y122547D01*
X52165D01*
X52081Y123401D01*
X51686Y124703D01*
X51045Y125902D01*
X50182Y126954D01*
X49131Y127817D01*
X47931Y128458D01*
X46629Y128853D01*
X45776Y128937D01*
D02*
G37*
G36*
X44776Y128937D02*
X43922Y128853D01*
X42620Y128458D01*
X41421Y127817D01*
X40369Y126954D01*
X39506Y125902D01*
X38865Y124703D01*
X38470Y123401D01*
X38386Y122547D01*
X44776D01*
Y128937D01*
D02*
G37*
G36*
X252165Y134055D02*
X239961D01*
Y121850D01*
X252165D01*
Y134055D01*
D02*
G37*
G36*
X52165Y121547D02*
X45776D01*
Y115158D01*
X46629Y115242D01*
X47931Y115637D01*
X49131Y116278D01*
X50182Y117141D01*
X51045Y118192D01*
X51686Y119392D01*
X52081Y120694D01*
X52165Y121547D01*
D02*
G37*
G36*
X44776D02*
X38386D01*
X38470Y120694D01*
X38865Y119392D01*
X39506Y118192D01*
X40369Y117141D01*
X41421Y116278D01*
X42620Y115637D01*
X43922Y115242D01*
X44776Y115158D01*
Y121547D01*
D02*
G37*
G36*
X84646Y129168D02*
X83256Y129031D01*
X81921Y128626D01*
X80690Y127968D01*
X79610Y127083D01*
X78725Y126003D01*
X78067Y124772D01*
X77662Y123436D01*
X77525Y122047D01*
X77662Y120658D01*
X78067Y119322D01*
X78725Y118091D01*
X79610Y117012D01*
X80690Y116126D01*
X81921Y115468D01*
X83256Y115063D01*
X84646Y114926D01*
X86035Y115063D01*
X87371Y115468D01*
X88602Y116126D01*
X89681Y117012D01*
X90566Y118091D01*
X91224Y119322D01*
X91630Y120658D01*
X91767Y122047D01*
X91630Y123436D01*
X91224Y124772D01*
X90566Y126003D01*
X89681Y127083D01*
X88602Y127968D01*
X87371Y128626D01*
X86035Y129031D01*
X84646Y129168D01*
D02*
G37*
G36*
X246563Y120074D02*
Y114673D01*
X251964D01*
X251899Y115334D01*
X251560Y116450D01*
X251010Y117479D01*
X250270Y118380D01*
X249369Y119120D01*
X248340Y119670D01*
X247224Y120009D01*
X246563Y120074D01*
D02*
G37*
G36*
X245563D02*
X244902Y120009D01*
X243786Y119670D01*
X242757Y119120D01*
X241856Y118380D01*
X241116Y117479D01*
X240566Y116450D01*
X240227Y115334D01*
X240162Y114673D01*
X245563D01*
Y120074D01*
D02*
G37*
G36*
X251964Y113673D02*
X246563D01*
Y108273D01*
X247224Y108338D01*
X248340Y108676D01*
X249369Y109226D01*
X250270Y109966D01*
X251010Y110868D01*
X251560Y111896D01*
X251899Y113013D01*
X251964Y113673D01*
D02*
G37*
G36*
X245563D02*
X240162D01*
X240227Y113013D01*
X240566Y111896D01*
X241116Y110868D01*
X241856Y109966D01*
X242757Y109226D01*
X243786Y108676D01*
X244902Y108338D01*
X245563Y108273D01*
Y113673D01*
D02*
G37*
G36*
X208768Y108424D02*
Y106799D01*
X210392D01*
X210322Y107150D01*
X209840Y107872D01*
X209119Y108354D01*
X208768Y108424D01*
D02*
G37*
G36*
X207768D02*
X207417Y108354D01*
X206695Y107872D01*
X206213Y107150D01*
X206143Y106799D01*
X207768D01*
Y108424D01*
D02*
G37*
G36*
X210392Y105799D02*
X208768D01*
Y104175D01*
X209119Y104245D01*
X209840Y104727D01*
X210322Y105448D01*
X210392Y105799D01*
D02*
G37*
G36*
X207768D02*
X206143D01*
X206213Y105448D01*
X206695Y104727D01*
X207417Y104245D01*
X207768Y104175D01*
Y105799D01*
D02*
G37*
G36*
X177165Y115384D02*
X175969Y115266D01*
X174819Y114917D01*
X173759Y114350D01*
X172829Y113588D01*
X172067Y112659D01*
X171500Y111599D01*
X171151Y110448D01*
X171034Y109252D01*
Y107283D01*
X171151Y106087D01*
X171500Y104937D01*
X172067Y103877D01*
X172829Y102948D01*
X173759Y102185D01*
X174819Y101618D01*
X175969Y101269D01*
X177165Y101152D01*
X178362Y101269D01*
X179512Y101618D01*
X180572Y102185D01*
X181501Y102948D01*
X182264Y103877D01*
X182831Y104937D01*
X183179Y106087D01*
X183297Y107283D01*
Y109252D01*
X183179Y110448D01*
X182831Y111599D01*
X182264Y112659D01*
X181501Y113588D01*
X180572Y114350D01*
X179512Y114917D01*
X178362Y115266D01*
X177165Y115384D01*
D02*
G37*
G36*
X162402D02*
X161205Y115266D01*
X160055Y114917D01*
X158995Y114350D01*
X158066Y113588D01*
X157303Y112659D01*
X156736Y111599D01*
X156387Y110448D01*
X156270Y109252D01*
Y107283D01*
X156387Y106087D01*
X156736Y104937D01*
X157303Y103877D01*
X158066Y102948D01*
X158995Y102185D01*
X160055Y101618D01*
X161205Y101269D01*
X162402Y101152D01*
X163598Y101269D01*
X164748Y101618D01*
X165808Y102185D01*
X166737Y102948D01*
X167500Y103877D01*
X168067Y104937D01*
X168416Y106087D01*
X168534Y107283D01*
Y109252D01*
X168416Y110448D01*
X168067Y111599D01*
X167500Y112659D01*
X166737Y113588D01*
X165808Y114350D01*
X164748Y114917D01*
X163598Y115266D01*
X162402Y115384D01*
D02*
G37*
G36*
X147638D02*
X146441Y115266D01*
X145291Y114917D01*
X144231Y114350D01*
X143302Y113588D01*
X142539Y112659D01*
X141973Y111599D01*
X141624Y110448D01*
X141506Y109252D01*
Y107283D01*
X141624Y106087D01*
X141973Y104937D01*
X142539Y103877D01*
X143302Y102948D01*
X144231Y102185D01*
X145291Y101618D01*
X146441Y101269D01*
X147638Y101152D01*
X148834Y101269D01*
X149984Y101618D01*
X151044Y102185D01*
X151974Y102948D01*
X152736Y103877D01*
X153303Y104937D01*
X153652Y106087D01*
X153770Y107283D01*
Y109252D01*
X153652Y110448D01*
X153303Y111599D01*
X152736Y112659D01*
X151974Y113588D01*
X151044Y114350D01*
X149984Y114917D01*
X148834Y115266D01*
X147638Y115384D01*
D02*
G37*
G36*
X246063Y106526D02*
X244867Y106408D01*
X243716Y106059D01*
X242656Y105492D01*
X241727Y104730D01*
X240965Y103800D01*
X240398Y102740D01*
X240049Y101590D01*
X239931Y100394D01*
X240049Y99197D01*
X240398Y98047D01*
X240965Y96987D01*
X241727Y96058D01*
X242656Y95295D01*
X243716Y94729D01*
X244867Y94380D01*
X246063Y94262D01*
X247259Y94380D01*
X248410Y94729D01*
X249470Y95295D01*
X250399Y96058D01*
X251162Y96987D01*
X251728Y98047D01*
X252077Y99197D01*
X252195Y100394D01*
X252077Y101590D01*
X251728Y102740D01*
X251162Y103800D01*
X250399Y104730D01*
X249470Y105492D01*
X248410Y106059D01*
X247259Y106408D01*
X246063Y106526D01*
D02*
G37*
G36*
X185146Y88739D02*
Y87114D01*
X186770D01*
X186700Y87465D01*
X186218Y88187D01*
X185497Y88669D01*
X185146Y88739D01*
D02*
G37*
G36*
X184146D02*
X183795Y88669D01*
X183073Y88187D01*
X182591Y87465D01*
X182521Y87114D01*
X184146D01*
Y88739D01*
D02*
G37*
G36*
X186770Y86114D02*
X185146D01*
Y84490D01*
X185497Y84560D01*
X186218Y85042D01*
X186700Y85763D01*
X186770Y86114D01*
D02*
G37*
G36*
X184146D02*
X182521D01*
X182591Y85763D01*
X183073Y85042D01*
X183795Y84560D01*
X184146Y84490D01*
Y86114D01*
D02*
G37*
G36*
X246063Y92746D02*
X244867Y92628D01*
X243716Y92279D01*
X242656Y91713D01*
X241727Y90950D01*
X240965Y90021D01*
X240398Y88961D01*
X240049Y87810D01*
X239931Y86614D01*
X240049Y85418D01*
X240398Y84268D01*
X240965Y83207D01*
X241727Y82278D01*
X242656Y81516D01*
X243716Y80949D01*
X244867Y80600D01*
X246063Y80482D01*
X247259Y80600D01*
X248410Y80949D01*
X249470Y81516D01*
X250399Y82278D01*
X251162Y83207D01*
X251728Y84268D01*
X252077Y85418D01*
X252195Y86614D01*
X252077Y87810D01*
X251728Y88961D01*
X251162Y90021D01*
X250399Y90950D01*
X249470Y91713D01*
X248410Y92279D01*
X247259Y92628D01*
X246063Y92746D01*
D02*
G37*
G36*
X234252Y95912D02*
X233330Y95729D01*
X232549Y95207D01*
X232027Y94426D01*
X231843Y93504D01*
Y81614D01*
X232027Y80692D01*
X232549Y79911D01*
X233330Y79389D01*
X234252Y79206D01*
X235174Y79389D01*
X235955Y79911D01*
X236477Y80692D01*
X236660Y81614D01*
Y93504D01*
X236477Y94426D01*
X235955Y95207D01*
X235174Y95729D01*
X234252Y95912D01*
D02*
G37*
%LPD*%
D19*
Y81614D02*
Y93504D01*
D20*
X84646Y122047D02*
D03*
X45276D02*
D03*
D21*
X25591Y43307D02*
D03*
D22*
X104331D02*
D03*
D23*
X246063Y72835D02*
D03*
Y114173D02*
D03*
Y100394D02*
D03*
Y86614D02*
D03*
D24*
Y127953D02*
D03*
D25*
X147638Y29528D02*
D03*
Y9843D02*
D03*
X177165Y29528D02*
D03*
Y9843D02*
D03*
D26*
X162402Y108268D02*
D03*
X177165D02*
D03*
X147638D02*
D03*
D27*
X25591Y17717D02*
D03*
X104331D02*
D03*
X220472D02*
D03*
D28*
X234252Y93504D02*
D03*
Y81614D02*
D03*
X171457Y129921D02*
D03*
X184646Y86614D02*
D03*
X208268Y106299D02*
D03*
M02*
