G04*
G04 #@! TF.GenerationSoftware,Altium Limited,Altium Designer,19.0.5 (141)*
G04*
G04 Layer_Color=16711935*
%FSLAX25Y25*%
%MOIN*%
G70*
G01*
G75*
%ADD11C,0.12611*%
%ADD12R,0.16548X0.16548*%
%ADD13C,0.16548*%
%ADD14C,0.10642*%
%ADD15R,0.10642X0.10642*%
%ADD16O,0.14580X0.10642*%
%ADD17O,0.10642X0.12611*%
%ADD18R,0.26391X0.18517*%
%ADD44C,0.09843*%
%ADD48R,0.04737X0.04737*%
%ADD49R,0.04737X0.04737*%
%ADD50R,0.07690X0.03359*%
%ADD51O,0.07690X0.03359*%
%ADD52R,0.05918X0.05918*%
D11*
X84646Y122047D02*
D03*
X45276D02*
D03*
D12*
X25591Y43307D02*
D03*
D13*
X104331D02*
D03*
D14*
X246063Y72835D02*
D03*
Y114173D02*
D03*
Y100394D02*
D03*
Y86614D02*
D03*
D15*
Y127953D02*
D03*
D16*
X147638Y29528D02*
D03*
Y9843D02*
D03*
X177165Y29528D02*
D03*
Y9843D02*
D03*
D17*
X162402Y108268D02*
D03*
X177165D02*
D03*
X147638D02*
D03*
D18*
X25591Y17717D02*
D03*
X104331D02*
D03*
X220472D02*
D03*
D44*
X200787D02*
X220472D01*
X177165Y9843D02*
X192913D01*
X200787Y17717D01*
X147638Y9843D02*
X177165D01*
X104331Y17717D02*
X123031D01*
X134843Y29528D01*
X147638D01*
X177165D01*
D48*
X153937Y95394D02*
D03*
Y81614D02*
D03*
X211417Y116142D02*
D03*
Y129921D02*
D03*
D49*
X177165Y91614D02*
D03*
X163386D02*
D03*
D50*
X214961Y96614D02*
D03*
D51*
Y91614D02*
D03*
Y86614D02*
D03*
Y81614D02*
D03*
X192913Y96614D02*
D03*
Y91614D02*
D03*
Y86614D02*
D03*
Y81614D02*
D03*
D52*
X192717Y116142D02*
D03*
X201772D02*
D03*
X171457Y123031D02*
D03*
X162402D02*
D03*
X214567Y106299D02*
D03*
X223622D02*
D03*
X201772D02*
D03*
X192717D02*
D03*
M02*
