G04*
G04 #@! TF.GenerationSoftware,Altium Limited,Altium Designer,19.0.5 (141)*
G04*
G04 Layer_Physical_Order=4*
G04 Layer_Color=16711680*
%FSLAX25Y25*%
%MOIN*%
G70*
G01*
G75*
%ADD19C,0.02362*%
%ADD20C,0.11811*%
%ADD21R,0.15748X0.15748*%
%ADD22C,0.15748*%
%ADD23C,0.09843*%
%ADD24R,0.09843X0.09843*%
%ADD25O,0.13780X0.09843*%
%ADD26O,0.09843X0.11811*%
%ADD27R,0.25591X0.17717*%
%ADD28C,0.02362*%
%ADD39R,0.03937X0.03937*%
%ADD40R,0.03937X0.03937*%
%ADD41R,0.06890X0.02559*%
%ADD42O,0.06890X0.02559*%
%ADD43R,0.05118X0.05118*%
%ADD44C,0.09843*%
%ADD45C,0.02559*%
%ADD46C,0.01968*%
%ADD47C,0.03937*%
G36*
X253937Y135827D02*
X253937Y66929D01*
X249021D01*
X248895Y67429D01*
X249470Y67736D01*
X250399Y68499D01*
X251162Y69428D01*
X251728Y70488D01*
X252077Y71638D01*
X252195Y72835D01*
X252077Y74031D01*
X251728Y75181D01*
X251162Y76241D01*
X250399Y77171D01*
X249470Y77933D01*
X248410Y78500D01*
X247259Y78849D01*
X246063Y78966D01*
X244867Y78849D01*
X243716Y78500D01*
X242656Y77933D01*
X241727Y77171D01*
X240965Y76241D01*
X240431Y75243D01*
X210447D01*
X207133Y78557D01*
Y92839D01*
X208500Y94206D01*
X210335D01*
Y94153D01*
X211267D01*
X211418Y93654D01*
X211021Y93388D01*
X210477Y92574D01*
X210286Y91614D01*
X210477Y90654D01*
X211021Y89840D01*
X211692Y89392D01*
X211712Y89328D01*
Y88901D01*
X211692Y88836D01*
X211021Y88388D01*
X210477Y87574D01*
X210286Y86614D01*
X210477Y85654D01*
X211021Y84840D01*
X211692Y84392D01*
X211712Y84328D01*
Y83901D01*
X211692Y83836D01*
X211021Y83388D01*
X210477Y82574D01*
X210286Y81614D01*
X210477Y80654D01*
X211021Y79840D01*
X211835Y79296D01*
X212795Y79105D01*
X217126D01*
X217631Y79206D01*
X234252D01*
X235174Y79389D01*
X235955Y79911D01*
X236477Y80692D01*
X236660Y81614D01*
X236477Y82536D01*
X235955Y83317D01*
X235374Y83706D01*
X235525Y84206D01*
X240431D01*
X240965Y83207D01*
X241727Y82278D01*
X242656Y81516D01*
X243716Y80949D01*
X244867Y80600D01*
X246063Y80482D01*
X247259Y80600D01*
X248410Y80949D01*
X249470Y81516D01*
X250399Y82278D01*
X251162Y83207D01*
X251728Y84268D01*
X252077Y85418D01*
X252195Y86614D01*
X252077Y87810D01*
X251728Y88961D01*
X251162Y90021D01*
X250399Y90950D01*
X249470Y91713D01*
X248410Y92279D01*
X247259Y92628D01*
X246063Y92746D01*
X244867Y92628D01*
X243716Y92279D01*
X242656Y91713D01*
X241727Y90950D01*
X240965Y90021D01*
X240431Y89023D01*
X221529D01*
X221378Y89523D01*
X221853Y89840D01*
X225199Y93187D01*
X225743Y94001D01*
X225934Y94961D01*
Y102559D01*
X227362D01*
Y110039D01*
X219882D01*
Y102559D01*
X220916D01*
Y96000D01*
X220048Y95132D01*
X219587Y95323D01*
Y99075D01*
X210335D01*
Y99023D01*
X207502D01*
X206580Y98839D01*
X205799Y98317D01*
X203021Y95539D01*
X202499Y94758D01*
X202316Y93836D01*
Y77559D01*
X202499Y76637D01*
X203021Y75856D01*
X207746Y71132D01*
X208527Y70609D01*
X209449Y70426D01*
X240431D01*
X240965Y69428D01*
X241727Y68499D01*
X242656Y67736D01*
X243231Y67429D01*
X243106Y66929D01*
X232283Y66929D01*
X135827D01*
Y108268D01*
X1969Y108268D01*
Y135827D01*
X253937Y135827D01*
D02*
G37*
G36*
X189306Y21654D02*
D01*
D02*
G37*
%LPC*%
G36*
X252165Y134055D02*
X239961D01*
Y131130D01*
X226769D01*
X225731Y132168D01*
X225073Y132672D01*
X224307Y132990D01*
X223484Y133098D01*
X211417D01*
X211211Y133071D01*
X208268D01*
Y130128D01*
X208241Y129921D01*
X208268Y129715D01*
Y126772D01*
X211211D01*
X211417Y126744D01*
X222168D01*
X223206Y125706D01*
X223864Y125202D01*
X224630Y124884D01*
X225453Y124776D01*
X239961D01*
Y121850D01*
X252165D01*
Y134055D01*
D02*
G37*
G36*
X171457Y132330D02*
X170535Y132146D01*
X169754Y131624D01*
X169231Y130843D01*
X169048Y129921D01*
Y126591D01*
X167898D01*
Y123531D01*
X171457D01*
X175016D01*
Y126591D01*
X173865D01*
Y129921D01*
X173682Y130843D01*
X173160Y131624D01*
X172378Y132146D01*
X171457Y132330D01*
D02*
G37*
G36*
X45776Y128937D02*
Y122547D01*
X52165D01*
X52081Y123401D01*
X51686Y124703D01*
X51045Y125902D01*
X50182Y126954D01*
X49131Y127817D01*
X47931Y128458D01*
X46629Y128853D01*
X45776Y128937D01*
D02*
G37*
G36*
X44776Y128937D02*
X43922Y128853D01*
X42620Y128458D01*
X41421Y127817D01*
X40369Y126954D01*
X39506Y125902D01*
X38865Y124703D01*
X38470Y123401D01*
X38386Y122547D01*
X44776D01*
Y128937D01*
D02*
G37*
G36*
X175016Y122531D02*
X171957D01*
Y119473D01*
X175016D01*
Y122531D01*
D02*
G37*
G36*
X170957D02*
X167898D01*
Y119473D01*
X170957D01*
Y122531D01*
D02*
G37*
G36*
X52165Y121547D02*
X45776D01*
Y115158D01*
X46629Y115242D01*
X47931Y115637D01*
X49131Y116278D01*
X50182Y117141D01*
X51045Y118192D01*
X51686Y119392D01*
X52081Y120694D01*
X52165Y121547D01*
D02*
G37*
G36*
X44776D02*
X38386D01*
X38470Y120694D01*
X38865Y119392D01*
X39506Y118192D01*
X40369Y117141D01*
X41421Y116278D01*
X42620Y115637D01*
X43922Y115242D01*
X44776Y115158D01*
Y121547D01*
D02*
G37*
G36*
X84646Y129168D02*
X83256Y129031D01*
X81921Y128626D01*
X80690Y127968D01*
X79610Y127083D01*
X78725Y126003D01*
X78067Y124772D01*
X77662Y123436D01*
X77525Y122047D01*
X77662Y120658D01*
X78067Y119322D01*
X78725Y118091D01*
X79610Y117012D01*
X80690Y116126D01*
X81921Y115468D01*
X83256Y115063D01*
X84646Y114926D01*
X86035Y115063D01*
X87371Y115468D01*
X88602Y116126D01*
X89681Y117012D01*
X90566Y118091D01*
X91224Y119322D01*
X91630Y120658D01*
X91767Y122047D01*
X91630Y123436D01*
X91224Y124772D01*
X90566Y126003D01*
X89681Y127083D01*
X88602Y127968D01*
X87371Y128626D01*
X86035Y129031D01*
X84646Y129168D01*
D02*
G37*
G36*
X246563Y120074D02*
Y114673D01*
X251964D01*
X251899Y115334D01*
X251560Y116450D01*
X251010Y117479D01*
X250270Y118380D01*
X249369Y119120D01*
X248340Y119670D01*
X247224Y120009D01*
X246563Y120074D01*
D02*
G37*
G36*
X245563D02*
X244902Y120009D01*
X243786Y119670D01*
X242757Y119120D01*
X241856Y118380D01*
X241116Y117479D01*
X240566Y116450D01*
X240227Y115334D01*
X240162Y114673D01*
X245563D01*
Y120074D01*
D02*
G37*
G36*
X205512Y119882D02*
X198031D01*
Y112402D01*
X205512D01*
Y113633D01*
X208268D01*
Y112992D01*
X214567D01*
Y119291D01*
X208268D01*
Y118651D01*
X205512D01*
Y119882D01*
D02*
G37*
G36*
X214067Y109858D02*
X211008D01*
Y108708D01*
X205331D01*
Y109858D01*
X202272D01*
Y106299D01*
Y102740D01*
X205331D01*
Y103891D01*
X211008D01*
Y102740D01*
X214067D01*
Y106299D01*
Y109858D01*
D02*
G37*
G36*
X251964Y113673D02*
X246563D01*
Y108273D01*
X247224Y108338D01*
X248340Y108676D01*
X249369Y109226D01*
X250270Y109966D01*
X251010Y110868D01*
X251560Y111896D01*
X251899Y113013D01*
X251964Y113673D01*
D02*
G37*
G36*
X245563D02*
X240162D01*
X240227Y113013D01*
X240566Y111896D01*
X241116Y110868D01*
X241856Y109966D01*
X242757Y109226D01*
X243786Y108676D01*
X244902Y108338D01*
X245563Y108273D01*
Y113673D01*
D02*
G37*
G36*
X218126Y109858D02*
X215067D01*
Y106799D01*
X218126D01*
Y109858D01*
D02*
G37*
G36*
X201272D02*
X198213D01*
Y106799D01*
X201272D01*
Y109858D01*
D02*
G37*
G36*
X166142Y126772D02*
X158661D01*
Y119291D01*
X159225D01*
Y114473D01*
X158995Y114350D01*
X158066Y113588D01*
X157303Y112659D01*
X156736Y111599D01*
X156387Y110448D01*
X156270Y109252D01*
Y107283D01*
X156328Y106687D01*
X152766Y103124D01*
X152395Y103461D01*
X152736Y103877D01*
X153303Y104937D01*
X153652Y106087D01*
X153770Y107283D01*
Y109252D01*
X153652Y110448D01*
X153303Y111599D01*
X152736Y112659D01*
X151974Y113588D01*
X151044Y114350D01*
X149984Y114917D01*
X148834Y115266D01*
X147638Y115384D01*
X146441Y115266D01*
X145291Y114917D01*
X144231Y114350D01*
X143302Y113588D01*
X142539Y112659D01*
X141973Y111599D01*
X141624Y110448D01*
X141506Y109252D01*
Y107283D01*
X141624Y106087D01*
X141973Y104937D01*
X142539Y103877D01*
X143302Y102948D01*
X144231Y102185D01*
X144461Y102062D01*
Y87913D01*
X144569Y87091D01*
X144887Y86325D01*
X145391Y85667D01*
X150787Y80271D01*
Y78465D01*
X153731D01*
X153937Y78437D01*
X187402D01*
X188224Y78546D01*
X188990Y78863D01*
X189306Y79105D01*
X195079D01*
X196039Y79296D01*
X196853Y79840D01*
X197397Y80654D01*
X197588Y81614D01*
X197397Y82574D01*
X196853Y83388D01*
X196039Y83932D01*
X195940Y83952D01*
Y84461D01*
X195968Y84467D01*
X196722Y84971D01*
X197226Y85725D01*
X197303Y86114D01*
X192913D01*
Y87114D01*
X197303D01*
X197226Y87504D01*
X196722Y88258D01*
X195968Y88761D01*
X195940Y88767D01*
Y89277D01*
X196039Y89296D01*
X196853Y89840D01*
X197397Y90654D01*
X197588Y91614D01*
X197397Y92574D01*
X196853Y93388D01*
X196182Y93836D01*
X196162Y93901D01*
Y94327D01*
X196182Y94392D01*
X196853Y94840D01*
X197397Y95654D01*
X197588Y96614D01*
X197397Y97574D01*
X196853Y98388D01*
X196039Y98932D01*
X195225Y99094D01*
Y102559D01*
X196457D01*
Y110039D01*
X195225D01*
Y112402D01*
X196457D01*
Y119882D01*
X188976D01*
Y112402D01*
X190208D01*
Y110039D01*
X188976D01*
Y102559D01*
X190208D01*
Y99015D01*
X189788Y98932D01*
X188974Y98388D01*
X188430Y97574D01*
X188239Y96614D01*
X188430Y95654D01*
X188907Y94941D01*
X188630Y94514D01*
X188224Y94683D01*
X187402Y94791D01*
X180342D01*
Y102062D01*
X180572Y102185D01*
X181501Y102948D01*
X182264Y103877D01*
X182831Y104937D01*
X183179Y106087D01*
X183297Y107283D01*
Y109252D01*
X183179Y110448D01*
X182831Y111599D01*
X182264Y112659D01*
X181501Y113588D01*
X180572Y114350D01*
X179512Y114917D01*
X178362Y115266D01*
X177165Y115384D01*
X175969Y115266D01*
X174819Y114917D01*
X173759Y114350D01*
X172829Y113588D01*
X172067Y112659D01*
X171500Y111599D01*
X171151Y110448D01*
X171034Y109252D01*
Y107283D01*
X171151Y106087D01*
X171500Y104937D01*
X172067Y103877D01*
X172829Y102948D01*
X173759Y102185D01*
X173989Y102062D01*
Y91614D01*
X174016Y91408D01*
Y88465D01*
X176959D01*
X177165Y88437D01*
X182303D01*
X182570Y87937D01*
X182328Y87574D01*
X182137Y86614D01*
X182328Y85654D01*
X182570Y85291D01*
X182303Y84791D01*
X155253D01*
X150815Y89229D01*
Y92244D01*
X153731D01*
X153937Y92217D01*
X154144Y92244D01*
X157087D01*
Y95187D01*
X157114Y95394D01*
Y98487D01*
X160201Y101574D01*
X161205Y101269D01*
X162402Y101152D01*
X163598Y101269D01*
X164003Y101392D01*
X164405Y101094D01*
Y100135D01*
X161140Y96869D01*
X160635Y96211D01*
X160317Y95445D01*
X160209Y94623D01*
Y91614D01*
X160236Y91408D01*
Y88465D01*
X163179D01*
X163386Y88437D01*
X163592Y88465D01*
X166535D01*
Y91408D01*
X166563Y91614D01*
Y93307D01*
X169828Y96573D01*
X170333Y97230D01*
X170650Y97997D01*
X170758Y98819D01*
Y102959D01*
X170650Y103781D01*
X170333Y104547D01*
X169828Y105205D01*
X168463Y106570D01*
X168534Y107283D01*
Y109252D01*
X168416Y110448D01*
X168067Y111599D01*
X167500Y112659D01*
X166737Y113588D01*
X165808Y114350D01*
X165578Y114473D01*
Y119291D01*
X166142D01*
Y126772D01*
D02*
G37*
G36*
X218126Y105799D02*
X215067D01*
Y102740D01*
X218126D01*
Y105799D01*
D02*
G37*
G36*
X201272D02*
X198213D01*
Y102740D01*
X201272D01*
Y105799D01*
D02*
G37*
G36*
X246063Y106526D02*
X244867Y106408D01*
X243716Y106059D01*
X242656Y105492D01*
X241727Y104730D01*
X240965Y103800D01*
X240398Y102740D01*
X240049Y101590D01*
X239931Y100394D01*
X240049Y99197D01*
X240377Y98114D01*
X238176Y95912D01*
X234252D01*
X233330Y95729D01*
X232549Y95207D01*
X232027Y94426D01*
X231843Y93504D01*
X232027Y92582D01*
X232549Y91801D01*
X233330Y91279D01*
X234252Y91096D01*
X239173D01*
X240095Y91279D01*
X240876Y91801D01*
X243784Y94708D01*
X244867Y94380D01*
X246063Y94262D01*
X247259Y94380D01*
X248410Y94729D01*
X249470Y95295D01*
X250399Y96058D01*
X251162Y96987D01*
X251728Y98047D01*
X252077Y99197D01*
X252195Y100394D01*
X252077Y101590D01*
X251728Y102740D01*
X251162Y103800D01*
X250399Y104730D01*
X249470Y105492D01*
X248410Y106059D01*
X247259Y106408D01*
X246063Y106526D01*
D02*
G37*
%LPD*%
D19*
X209449Y72835D02*
X246063D01*
X204724Y77559D02*
X209449Y72835D01*
X204724Y77559D02*
Y93836D01*
X207502Y96614D01*
X214961D01*
X239173Y93504D02*
X246063Y100394D01*
X234252Y93504D02*
X239173D01*
X214961Y81614D02*
X234252D01*
X214961Y86614D02*
X246063D01*
X171457Y123031D02*
Y129921D01*
X208268Y106299D02*
X214567D01*
X201772D02*
X208268D01*
D20*
X84646Y122047D02*
D03*
X45276D02*
D03*
D21*
X25591Y43307D02*
D03*
D22*
X104331D02*
D03*
D23*
X246063Y72835D02*
D03*
Y114173D02*
D03*
Y100394D02*
D03*
Y86614D02*
D03*
D24*
Y127953D02*
D03*
D25*
X147638Y29528D02*
D03*
Y9843D02*
D03*
X177165Y29528D02*
D03*
Y9843D02*
D03*
D26*
X162402Y108268D02*
D03*
X177165D02*
D03*
X147638D02*
D03*
D27*
X25591Y17717D02*
D03*
X104331D02*
D03*
X220472D02*
D03*
D28*
X234252Y93504D02*
D03*
Y81614D02*
D03*
X171457Y129921D02*
D03*
X184646Y86614D02*
D03*
X208268Y106299D02*
D03*
D39*
X153937Y95394D02*
D03*
Y81614D02*
D03*
X211417Y116142D02*
D03*
Y129921D02*
D03*
D40*
X177165Y91614D02*
D03*
X163386D02*
D03*
D41*
X214961Y96614D02*
D03*
D42*
Y91614D02*
D03*
Y86614D02*
D03*
Y81614D02*
D03*
X192913Y96614D02*
D03*
Y91614D02*
D03*
Y86614D02*
D03*
Y81614D02*
D03*
D43*
X192717Y116142D02*
D03*
X201772D02*
D03*
X171457Y123031D02*
D03*
X162402D02*
D03*
X214567Y106299D02*
D03*
X223622D02*
D03*
X201772D02*
D03*
X192717D02*
D03*
D44*
X200787Y17717D02*
X220472D01*
X192913Y9843D02*
X200787Y17717D01*
X177165Y9843D02*
X192913D01*
X147638D02*
X177165D01*
X104331Y17717D02*
Y43307D01*
X25591Y17717D02*
Y43307D01*
X134843Y29528D02*
X147638D01*
X123031Y17717D02*
X134843Y29528D01*
X104331Y17717D02*
X123031D01*
X147638Y29528D02*
X177165D01*
D45*
X223425Y94961D02*
Y106102D01*
X220079Y91614D02*
X223425Y94961D01*
X214961Y91614D02*
X220079D01*
X184646Y86614D02*
X192913D01*
X187402Y81614D02*
X192913D01*
X187402Y91614D02*
X192913D01*
X211417Y129921D02*
X211917Y129421D01*
X201772Y116142D02*
X211417D01*
X192717Y96811D02*
Y106299D01*
Y115157D01*
D46*
X214919Y96573D02*
X214961Y96614D01*
X162402Y108139D02*
Y108268D01*
X246063Y86614D02*
X246063Y86614D01*
X223425Y106102D02*
X223484Y106161D01*
X25591Y17717D02*
X25591Y17717D01*
X162402Y123031D02*
X162402Y123031D01*
X192717Y96811D02*
X192913Y96614D01*
D47*
X153937Y99803D02*
X162402Y108268D01*
X153937Y95394D02*
Y99803D01*
X147638Y87913D02*
Y108268D01*
Y87913D02*
X153937Y81614D01*
X187402D01*
X162402Y108139D02*
X167582Y102959D01*
Y98819D02*
Y102959D01*
X163386Y94623D02*
X167582Y98819D01*
X163386Y91614D02*
Y94623D01*
X177165Y91614D02*
X187402D01*
X177165D02*
Y108268D01*
X211417Y129921D02*
X223484D01*
X225453Y127953D01*
X246063D01*
X162402Y108268D02*
Y123031D01*
M02*
