G04*
G04 #@! TF.GenerationSoftware,Altium Limited,Altium Designer,19.0.5 (141)*
G04*
G04 Layer_Color=65535*
%FSLAX25Y25*%
%MOIN*%
G70*
G01*
G75*
%ADD10C,0.00787*%
D10*
X2559Y30118D02*
Y135236D01*
X127362D01*
Y30118D02*
Y135236D01*
X2559Y30118D02*
X127362D01*
X238976Y65748D02*
Y135039D01*
Y65748D02*
X253150D01*
Y135039D01*
X238976D02*
X253150D01*
X137402Y3150D02*
Y117323D01*
Y3150D02*
X187402D01*
Y117323D01*
X137402D02*
X187402D01*
X11417Y7480D02*
X39764D01*
X11417Y27953D02*
X39764D01*
Y7480D02*
Y27953D01*
X11417Y7480D02*
Y27953D01*
X90158D02*
X118504D01*
X90158Y7480D02*
X118504D01*
X90158D02*
Y27953D01*
X118504Y7480D02*
Y27953D01*
X206299D02*
X234646D01*
X206299Y7480D02*
X234646D01*
X206299D02*
Y27953D01*
X234646Y7480D02*
Y27953D01*
X198425Y33071D02*
X199737D01*
X199081D01*
Y37007D01*
X198425Y36351D01*
X204329Y33071D02*
X201705D01*
X204329Y35695D01*
Y36351D01*
X203673Y37007D01*
X202361D01*
X201705Y36351D01*
X205641Y33071D02*
Y35695D01*
X206953Y37007D01*
X208264Y35695D01*
Y33071D01*
Y35039D01*
X205641D01*
X213512Y33071D02*
Y37007D01*
X214824Y35695D01*
X216136Y37007D01*
Y33071D01*
X218104Y35695D02*
X219416D01*
X220072Y35039D01*
Y33071D01*
X218104D01*
X217448Y33727D01*
X218104Y34383D01*
X220072D01*
X221384Y35695D02*
X224008Y33071D01*
X222696Y34383D01*
X224008Y35695D01*
X221384Y33071D01*
X229255Y37007D02*
Y33071D01*
X231879D01*
X233847D02*
X235159D01*
X235815Y33727D01*
Y35039D01*
X235159Y35695D01*
X233847D01*
X233191Y35039D01*
Y33727D01*
X233847Y33071D01*
X237783Y35695D02*
X239094D01*
X239751Y35039D01*
Y33071D01*
X237783D01*
X237127Y33727D01*
X237783Y34383D01*
X239751D01*
X243686Y37007D02*
Y33071D01*
X241718D01*
X241062Y33727D01*
Y35039D01*
X241718Y35695D01*
X243686D01*
X48687Y19684D02*
X46063D01*
Y17716D01*
X47375Y18372D01*
X48031D01*
X48687Y17716D01*
Y16404D01*
X48031Y15748D01*
X46719D01*
X46063Y16404D01*
X49999Y19028D02*
X50655Y19684D01*
X51967D01*
X52623Y19028D01*
Y16404D01*
X51967Y15748D01*
X50655D01*
X49999Y16404D01*
Y19028D01*
X53935Y15748D02*
X56558Y18372D01*
X60494Y19684D02*
X59182Y19028D01*
X57870Y17716D01*
Y16404D01*
X58526Y15748D01*
X59838D01*
X60494Y16404D01*
Y17060D01*
X59838Y17716D01*
X57870D01*
X61806Y19028D02*
X62462Y19684D01*
X63774D01*
X64430Y19028D01*
Y16404D01*
X63774Y15748D01*
X62462D01*
X61806Y16404D01*
Y19028D01*
X65742Y19684D02*
Y15748D01*
Y17716D01*
X68366D01*
Y19684D01*
Y15748D01*
X69677Y18372D02*
X72301D01*
X69677Y15748D01*
X72301D01*
X46063Y22441D02*
X47375D01*
X46719D01*
Y26377D01*
X46063Y25721D01*
X49343D02*
X49999Y26377D01*
X51311D01*
X51967Y25721D01*
Y23097D01*
X51311Y22441D01*
X49999D01*
X49343Y23097D01*
Y25721D01*
X53278D02*
X53935Y26377D01*
X55246D01*
X55902Y25721D01*
Y23097D01*
X55246Y22441D01*
X53935D01*
X53278Y23097D01*
Y25721D01*
X57214Y24409D02*
X59838D01*
X63774Y22441D02*
X61150D01*
X63774Y25065D01*
Y25721D01*
X63118Y26377D01*
X61806D01*
X61150Y25721D01*
X67054Y22441D02*
Y26377D01*
X65086Y24409D01*
X67710D01*
X69021Y25721D02*
X69677Y26377D01*
X70989D01*
X71645Y25721D01*
Y23097D01*
X70989Y22441D01*
X69677D01*
X69021Y23097D01*
Y25721D01*
X72957Y26377D02*
Y23753D01*
X74269Y22441D01*
X75581Y23753D01*
Y26377D01*
X76893Y22441D02*
Y25065D01*
X78205Y26377D01*
X79517Y25065D01*
Y22441D01*
Y24409D01*
X76893D01*
X83452Y25721D02*
X82797Y26377D01*
X81485D01*
X80829Y25721D01*
Y23097D01*
X81485Y22441D01*
X82797D01*
X83452Y23097D01*
X139370Y122047D02*
Y125983D01*
X140682Y124671D01*
X141994Y125983D01*
Y122047D01*
X143962D02*
X145274D01*
X145930Y122703D01*
Y124015D01*
X145274Y124671D01*
X143962D01*
X143306Y124015D01*
Y122703D01*
X143962Y122047D01*
X149865Y125983D02*
Y122047D01*
X147898D01*
X147242Y122703D01*
Y124015D01*
X147898Y124671D01*
X149865D01*
X153145Y122047D02*
X151833D01*
X151177Y122703D01*
Y124015D01*
X151833Y124671D01*
X153145D01*
X153801Y124015D01*
Y123359D01*
X151177D01*
X155113Y122047D02*
X156425D01*
X155769D01*
Y125983D01*
X155113D01*
X162329Y122047D02*
Y124671D01*
X163640Y125983D01*
X164952Y124671D01*
Y122047D01*
Y124015D01*
X162329D01*
X170200Y125983D02*
Y123359D01*
X171512Y122047D01*
X172824Y123359D01*
Y125983D01*
X174136Y122047D02*
X175448D01*
X174792D01*
Y125983D01*
X174136Y125327D01*
X177416Y122047D02*
Y122703D01*
X178071D01*
Y122047D01*
X177416D01*
X180695D02*
X182007D01*
X181351D01*
Y125983D01*
X180695Y125327D01*
X139370Y129134D02*
Y131758D01*
X140682Y133070D01*
X141994Y131758D01*
Y129134D01*
Y131102D01*
X139370D01*
X145930Y132414D02*
X145274Y133070D01*
X143962D01*
X143306Y132414D01*
Y129790D01*
X143962Y129134D01*
X145274D01*
X145930Y129790D01*
X151177Y129134D02*
Y133070D01*
X153145D01*
X153801Y132414D01*
Y131102D01*
X153145Y130446D01*
X151177D01*
X155769Y129134D02*
X157081D01*
X157737Y129790D01*
Y131102D01*
X157081Y131758D01*
X155769D01*
X155113Y131102D01*
Y129790D01*
X155769Y129134D01*
X159049Y131758D02*
Y129790D01*
X159705Y129134D01*
X160361Y129790D01*
X161017Y129134D01*
X161673Y129790D01*
Y131758D01*
X164952Y129134D02*
X163640D01*
X162985Y129790D01*
Y131102D01*
X163640Y131758D01*
X164952D01*
X165608Y131102D01*
Y130446D01*
X162985D01*
X166920Y131758D02*
Y129134D01*
Y130446D01*
X167576Y131102D01*
X168232Y131758D01*
X168888D01*
X177416Y132414D02*
X176760Y133070D01*
X175448D01*
X174792Y132414D01*
Y131758D01*
X175448Y131102D01*
X176760D01*
X177416Y130446D01*
Y129790D01*
X176760Y129134D01*
X175448D01*
X174792Y129790D01*
X178727Y131758D02*
Y129790D01*
X179383Y129134D01*
X180039Y129790D01*
X180695Y129134D01*
X181351Y129790D01*
Y131758D01*
X182663Y129134D02*
X183975D01*
X183319D01*
Y131758D01*
X182663D01*
X186599Y132414D02*
Y131758D01*
X185943D01*
X187255D01*
X186599D01*
Y129790D01*
X187255Y129134D01*
X191847Y131758D02*
X189879D01*
X189223Y131102D01*
Y129790D01*
X189879Y129134D01*
X191847D01*
X193158Y133070D02*
Y129134D01*
Y131102D01*
X193815Y131758D01*
X195126D01*
X195782Y131102D01*
Y129134D01*
X206299Y1575D02*
Y4199D01*
X207611Y5511D01*
X208923Y4199D01*
Y1575D01*
Y3543D01*
X206299D01*
X212859Y4855D02*
X212203Y5511D01*
X210891D01*
X210235Y4855D01*
Y2231D01*
X210891Y1575D01*
X212203D01*
X212859Y2231D01*
X214171Y3543D02*
X216794D01*
X218106Y5511D02*
Y1575D01*
X220730D01*
X227946Y5511D02*
X226634D01*
X225978Y4855D01*
Y2231D01*
X226634Y1575D01*
X227946D01*
X228602Y2231D01*
Y4855D01*
X227946Y5511D01*
X229914Y4199D02*
Y2231D01*
X230570Y1575D01*
X232538D01*
Y4199D01*
X234505Y4855D02*
Y4199D01*
X233849D01*
X235161D01*
X234505D01*
Y2231D01*
X235161Y1575D01*
X90158D02*
Y4199D01*
X91469Y5511D01*
X92781Y4199D01*
Y1575D01*
Y3543D01*
X90158D01*
X96717Y4855D02*
X96061Y5511D01*
X94749D01*
X94093Y4855D01*
Y2231D01*
X94749Y1575D01*
X96061D01*
X96717Y2231D01*
X98029Y3543D02*
X100653D01*
X101965Y5511D02*
Y1575D01*
X104588D01*
X109836Y5511D02*
X111148D01*
X110492D01*
Y1575D01*
X109836D01*
X111148D01*
X113116D02*
Y4199D01*
X115084D01*
X115740Y3543D01*
Y1575D01*
X11417D02*
Y4199D01*
X12729Y5511D01*
X14041Y4199D01*
Y1575D01*
Y3543D01*
X11417D01*
X17977Y4855D02*
X17321Y5511D01*
X16009D01*
X15353Y4855D01*
Y2231D01*
X16009Y1575D01*
X17321D01*
X17977Y2231D01*
X19289Y3543D02*
X21913D01*
X23224Y1575D02*
Y5511D01*
X25848Y1575D01*
Y5511D01*
X31096D02*
X32408D01*
X31752D01*
Y1575D01*
X31096D01*
X32408D01*
X34376D02*
Y4199D01*
X36344D01*
X37000Y3543D01*
Y1575D01*
X231758Y74015D02*
X229134D01*
Y70079D01*
X231758D01*
X229134Y72047D02*
X230446D01*
X233070Y70079D02*
Y74015D01*
X235693Y70079D01*
Y74015D01*
X229396Y87925D02*
X228740Y88581D01*
X227428D01*
X226772Y87925D01*
Y87270D01*
X227428Y86614D01*
X228740D01*
X229396Y85958D01*
Y85302D01*
X228740Y84646D01*
X227428D01*
X226772Y85302D01*
X232675Y84646D02*
X231363D01*
X230707Y85302D01*
Y86614D01*
X231363Y87270D01*
X232675D01*
X233331Y86614D01*
Y85958D01*
X230707D01*
X235299Y87925D02*
Y87270D01*
X234643D01*
X235955D01*
X235299D01*
Y85302D01*
X235955Y84646D01*
X218504Y98425D02*
Y102361D01*
X220472D01*
X221128Y101705D01*
Y100393D01*
X220472Y99737D01*
X218504D01*
X219816D02*
X221128Y98425D01*
X224408D02*
X223096D01*
X222440Y99081D01*
Y100393D01*
X223096Y101049D01*
X224408D01*
X225063Y100393D01*
Y99737D01*
X222440D01*
X226375Y98425D02*
X228343D01*
X228999Y99081D01*
X228343Y99737D01*
X227031D01*
X226375Y100393D01*
X227031Y101049D01*
X228999D01*
X232279Y98425D02*
X230967D01*
X230311Y99081D01*
Y100393D01*
X230967Y101049D01*
X232279D01*
X232935Y100393D01*
Y99737D01*
X230311D01*
X234903Y101705D02*
Y101049D01*
X234247D01*
X235559D01*
X234903D01*
Y99081D01*
X235559Y98425D01*
X227821Y115091D02*
X227165Y115747D01*
X225853D01*
X225197Y115091D01*
Y112467D01*
X225853Y111811D01*
X227165D01*
X227821Y112467D01*
Y113779D01*
X226509D01*
X229133Y111811D02*
Y115747D01*
X231756Y111811D01*
Y115747D01*
X233068D02*
Y111811D01*
X235036D01*
X235692Y112467D01*
Y115091D01*
X235036Y115747D01*
X233068D01*
X225984Y125984D02*
X227296D01*
X226640D01*
Y129920D01*
X225984Y129264D01*
X231888Y125984D02*
X229264D01*
X231888Y128608D01*
Y129264D01*
X231232Y129920D01*
X229920D01*
X229264Y129264D01*
X233200Y129920D02*
Y127296D01*
X234512Y125984D01*
X235824Y127296D01*
Y129920D01*
X121653Y24016D02*
Y27951D01*
X123621D01*
X124277Y27296D01*
Y25984D01*
X123621Y25328D01*
X121653D01*
X128213Y27296D02*
X127557Y27951D01*
X126245D01*
X125589Y27296D01*
Y26640D01*
X126245Y25984D01*
X127557D01*
X128213Y25328D01*
Y24672D01*
X127557Y24016D01*
X126245D01*
X125589Y24672D01*
X129525Y24016D02*
X130837D01*
X130181D01*
Y27951D01*
X129525Y27296D01*
X190157Y7085D02*
Y3150D01*
Y4462D01*
X192781Y7085D01*
X190813Y5117D01*
X192781Y3150D01*
X194093D02*
X195405D01*
X194749D01*
Y7085D01*
X194093Y6429D01*
X239238Y11416D02*
X237926D01*
X238582D01*
Y8136D01*
X237926Y7480D01*
X237270D01*
X236614Y8136D01*
X242518Y7480D02*
Y11416D01*
X240550Y9448D01*
X243174D01*
X123884Y11416D02*
X122572D01*
X123228D01*
Y8136D01*
X122572Y7480D01*
X121916D01*
X121260Y8136D01*
X125196Y10760D02*
X125852Y11416D01*
X127163D01*
X127819Y10760D01*
Y10104D01*
X127163Y9448D01*
X126507D01*
X127163D01*
X127819Y8792D01*
Y8136D01*
X127163Y7480D01*
X125852D01*
X125196Y8136D01*
X249080Y62991D02*
X247769D01*
X248425D01*
Y59711D01*
X247769Y59055D01*
X247113D01*
X246457Y59711D01*
X253016Y59055D02*
X250392D01*
X253016Y61679D01*
Y62335D01*
X252360Y62991D01*
X251048D01*
X250392Y62335D01*
X6561Y11416D02*
X5249D01*
X5905D01*
Y8136D01*
X5249Y7480D01*
X4593D01*
X3937Y8136D01*
X7873Y7480D02*
X9185D01*
X8529D01*
Y11416D01*
X7873Y10760D01*
M02*
