G04*
G04 #@! TF.GenerationSoftware,Altium Limited,Altium Designer,19.0.5 (141)*
G04*
G04 Layer_Color=32896*
%FSLAX25Y25*%
%MOIN*%
G70*
G01*
G75*
%ADD10C,0.00787*%
%ADD53C,0.01181*%
D10*
X150394Y99528D02*
X157480D01*
Y98937D02*
Y100118D01*
X150394D02*
X157480D01*
X150394Y98937D02*
Y100118D01*
X157480Y78071D02*
Y98937D01*
X150394Y78071D02*
X157480D01*
X150394D02*
Y98937D01*
X157480D01*
X159843Y88071D02*
Y95157D01*
Y88071D02*
X180709D01*
Y95157D01*
X159843D02*
X180709D01*
X158661Y88071D02*
X159843D01*
X158661D02*
Y95157D01*
X159843D01*
X159252Y88071D02*
Y95157D01*
X207874Y112008D02*
X214961D01*
X207874Y111417D02*
Y112598D01*
Y111417D02*
X214961D01*
Y112598D01*
X207874D02*
Y133465D01*
X214961D01*
Y112598D02*
Y133465D01*
X207874Y112598D02*
X214961D01*
X193307Y100551D02*
X214961D01*
X193307Y76929D02*
X214961D01*
X188779Y112205D02*
Y120079D01*
X205709D01*
Y112205D02*
Y120079D01*
X188779Y112205D02*
X205709D01*
X175394Y119095D02*
Y126969D01*
X158465Y119095D02*
X175394D01*
X158465D02*
Y126969D01*
X175394D01*
X210630Y102362D02*
Y110236D01*
X227559D01*
Y102362D02*
Y110236D01*
X210630Y102362D02*
X227559D01*
X205709D02*
Y110236D01*
X188779Y102362D02*
X205709D01*
X188779D02*
Y110236D01*
X205709D01*
X120374Y71260D02*
Y75196D01*
X119062Y73884D01*
X117750Y75196D01*
Y71260D01*
X115782Y73884D02*
X114470D01*
X113814Y73228D01*
Y71260D01*
X115782D01*
X116438Y71916D01*
X115782Y72572D01*
X113814D01*
X112503Y73884D02*
X109879Y71260D01*
X111191Y72572D01*
X109879Y73884D01*
X112503Y71260D01*
X108567D02*
Y71916D01*
X107911D01*
Y71260D01*
X108567D01*
X98727Y74540D02*
X99383Y75196D01*
X100695D01*
X101351Y74540D01*
Y73884D01*
X100695Y73228D01*
X99383D01*
X98727Y72572D01*
Y71916D01*
X99383Y71260D01*
X100695D01*
X101351Y71916D01*
X97416Y73884D02*
Y71916D01*
X96760Y71260D01*
X96104Y71916D01*
X95448Y71260D01*
X94792Y71916D01*
Y73884D01*
X93480Y71260D02*
X92168D01*
X92824D01*
Y73884D01*
X93480D01*
X89544Y74540D02*
Y73884D01*
X90200D01*
X88888D01*
X89544D01*
Y71916D01*
X88888Y71260D01*
X84296Y73884D02*
X86264D01*
X86920Y73228D01*
Y71916D01*
X86264Y71260D01*
X84296D01*
X82985Y75196D02*
Y71260D01*
Y73228D01*
X82328Y73884D01*
X81017D01*
X80361Y73228D01*
Y71260D01*
X79049D02*
X77737D01*
X78393D01*
Y73884D01*
X79049D01*
X75769Y71260D02*
Y73884D01*
X73801D01*
X73145Y73228D01*
Y71260D01*
X70521Y69948D02*
X69865D01*
X69209Y70604D01*
Y73884D01*
X71177D01*
X71833Y73228D01*
Y71916D01*
X71177Y71260D01*
X69209D01*
X61338Y74540D02*
X61994Y75196D01*
X63306D01*
X63962Y74540D01*
Y71916D01*
X63306Y71260D01*
X61994D01*
X61338Y71916D01*
X60026Y73884D02*
Y71916D01*
X59370Y71260D01*
X57402D01*
Y73884D01*
X56090D02*
Y71260D01*
Y72572D01*
X55434Y73228D01*
X54778Y73884D01*
X54122D01*
X52154D02*
Y71260D01*
Y72572D01*
X51499Y73228D01*
X50843Y73884D01*
X50187D01*
X46251Y71260D02*
X47563D01*
X48219Y71916D01*
Y73228D01*
X47563Y73884D01*
X46251D01*
X45595Y73228D01*
Y72572D01*
X48219D01*
X44283Y71260D02*
Y73884D01*
X42315D01*
X41659Y73228D01*
Y71260D01*
X39691Y74540D02*
Y73884D01*
X40347D01*
X39035D01*
X39691D01*
Y71916D01*
X39035Y71260D01*
X37067Y73884D02*
X36412D01*
Y73228D01*
X37067D01*
Y73884D01*
Y71916D02*
X36412D01*
Y71260D01*
X37067D01*
Y71916D01*
X29852Y71260D02*
X28540D01*
X29196D01*
Y75196D01*
X29852Y74540D01*
X23948Y71260D02*
X26572D01*
X23948Y73884D01*
Y74540D01*
X24604Y75196D01*
X25916D01*
X26572Y74540D01*
X22637Y71260D02*
Y73884D01*
X21325Y75196D01*
X20013Y73884D01*
Y71260D01*
Y73228D01*
X22637D01*
X120374Y80709D02*
Y84644D01*
X119062Y83333D01*
X117750Y84644D01*
Y80709D01*
X115782Y83333D02*
X114470D01*
X113814Y82677D01*
Y80709D01*
X115782D01*
X116438Y81365D01*
X115782Y82021D01*
X113814D01*
X112503Y83333D02*
X109879Y80709D01*
X111191Y82021D01*
X109879Y83333D01*
X112503Y80709D01*
X108567D02*
Y81365D01*
X107911D01*
Y80709D01*
X108567D01*
X98727Y83988D02*
X99383Y84644D01*
X100695D01*
X101351Y83988D01*
Y83333D01*
X100695Y82677D01*
X99383D01*
X98727Y82021D01*
Y81365D01*
X99383Y80709D01*
X100695D01*
X101351Y81365D01*
X97416Y83333D02*
Y81365D01*
X96760Y80709D01*
X96104Y81365D01*
X95448Y80709D01*
X94792Y81365D01*
Y83333D01*
X93480Y80709D02*
X92168D01*
X92824D01*
Y83333D01*
X93480D01*
X89544Y83988D02*
Y83333D01*
X90200D01*
X88888D01*
X89544D01*
Y81365D01*
X88888Y80709D01*
X84296Y83333D02*
X86264D01*
X86920Y82677D01*
Y81365D01*
X86264Y80709D01*
X84296D01*
X82985Y84644D02*
Y80709D01*
Y82677D01*
X82328Y83333D01*
X81017D01*
X80361Y82677D01*
Y80709D01*
X79049D02*
X77737D01*
X78393D01*
Y83333D01*
X79049D01*
X75769Y80709D02*
Y83333D01*
X73801D01*
X73145Y82677D01*
Y80709D01*
X70521Y79397D02*
X69865D01*
X69209Y80053D01*
Y83333D01*
X71177D01*
X71833Y82677D01*
Y81365D01*
X71177Y80709D01*
X69209D01*
X63962Y84644D02*
Y82021D01*
X62650Y80709D01*
X61338Y82021D01*
Y84644D01*
X59370Y80709D02*
X58058D01*
X57402Y81365D01*
Y82677D01*
X58058Y83333D01*
X59370D01*
X60026Y82677D01*
Y81365D01*
X59370Y80709D01*
X56090D02*
X54778D01*
X55434D01*
Y84644D01*
X56090D01*
X52154Y83988D02*
Y83333D01*
X52811D01*
X51499D01*
X52154D01*
Y81365D01*
X51499Y80709D01*
X48875Y83333D02*
X47563D01*
X46907Y82677D01*
Y80709D01*
X48875D01*
X49531Y81365D01*
X48875Y82021D01*
X46907D01*
X44283Y79397D02*
X43627D01*
X42971Y80053D01*
Y83333D01*
X44939D01*
X45595Y82677D01*
Y81365D01*
X44939Y80709D01*
X42971D01*
X39691D02*
X41003D01*
X41659Y81365D01*
Y82677D01*
X41003Y83333D01*
X39691D01*
X39035Y82677D01*
Y82021D01*
X41659D01*
X37723Y83333D02*
X37067D01*
Y82677D01*
X37723D01*
Y83333D01*
Y81365D02*
X37067D01*
Y80709D01*
X37723D01*
Y81365D01*
X27884Y80709D02*
X30508D01*
X27884Y83333D01*
Y83988D01*
X28540Y84644D01*
X29852D01*
X30508Y83988D01*
X24604Y80709D02*
Y84644D01*
X26572Y82677D01*
X23948D01*
X22637Y83988D02*
X21981Y84644D01*
X20669D01*
X20013Y83988D01*
Y81365D01*
X20669Y80709D01*
X21981D01*
X22637Y81365D01*
Y83988D01*
X18701Y84644D02*
Y82021D01*
X17389Y80709D01*
X16077Y82021D01*
Y84644D01*
X96260Y88681D02*
X94948D01*
X95604D01*
Y92617D01*
X96260Y91961D01*
X92980D02*
X92324Y92617D01*
X91012D01*
X90356Y91961D01*
Y89337D01*
X91012Y88681D01*
X92324D01*
X92980Y89337D01*
Y91961D01*
X89044D02*
X88388Y92617D01*
X87076D01*
X86421Y91961D01*
Y89337D01*
X87076Y88681D01*
X88388D01*
X89044Y89337D01*
Y91961D01*
X85109Y90649D02*
X82485D01*
X78549Y88681D02*
X81173D01*
X78549Y91305D01*
Y91961D01*
X79205Y92617D01*
X80517D01*
X81173Y91961D01*
X75269Y88681D02*
Y92617D01*
X77237Y90649D01*
X74613D01*
X73301Y91961D02*
X72645Y92617D01*
X71333D01*
X70678Y91961D01*
Y89337D01*
X71333Y88681D01*
X72645D01*
X73301Y89337D01*
Y91961D01*
X69366Y92617D02*
Y89993D01*
X68054Y88681D01*
X66742Y89993D01*
Y92617D01*
X58870D02*
X61494D01*
Y90649D01*
X60182Y91305D01*
X59526D01*
X58870Y90649D01*
Y89337D01*
X59526Y88681D01*
X60838D01*
X61494Y89337D01*
X57558Y91961D02*
X56902Y92617D01*
X55590D01*
X54935Y91961D01*
Y89337D01*
X55590Y88681D01*
X56902D01*
X57558Y89337D01*
Y91961D01*
X53623Y88681D02*
X50999Y91305D01*
X47063Y92617D02*
X48375Y91961D01*
X49687Y90649D01*
Y89337D01*
X49031Y88681D01*
X47719D01*
X47063Y89337D01*
Y89993D01*
X47719Y90649D01*
X49687D01*
X45751Y91961D02*
X45095Y92617D01*
X43783D01*
X43127Y91961D01*
Y89337D01*
X43783Y88681D01*
X45095D01*
X45751Y89337D01*
Y91961D01*
X41815Y92617D02*
Y88681D01*
Y90649D01*
X39192D01*
Y92617D01*
Y88681D01*
X37880Y91305D02*
X35256D01*
X37880Y88681D01*
X35256D01*
X119980Y93207D02*
X118668D01*
X119324D01*
Y89272D01*
X119980D01*
X118668D01*
X116700D02*
Y91896D01*
X114733D01*
X114077Y91240D01*
Y89272D01*
X112765Y87960D02*
Y91896D01*
X110797D01*
X110141Y91240D01*
Y89928D01*
X110797Y89272D01*
X112765D01*
X108829Y91896D02*
Y89928D01*
X108173Y89272D01*
X106205D01*
Y91896D01*
X104237Y92551D02*
Y91896D01*
X104893D01*
X103581D01*
X104237D01*
Y89928D01*
X103581Y89272D01*
X101613Y91896D02*
X100958D01*
Y91240D01*
X101613D01*
Y91896D01*
Y89928D02*
X100958D01*
Y89272D01*
X101613D01*
Y89928D01*
X206693Y42912D02*
Y38976D01*
Y40944D01*
X204069D01*
Y42912D01*
Y38976D01*
X202757D02*
X201445D01*
X202101D01*
Y41600D01*
X202757D01*
X198166Y37664D02*
X197510D01*
X196854Y38320D01*
Y41600D01*
X198821D01*
X199477Y40944D01*
Y39632D01*
X198821Y38976D01*
X196854D01*
X195542Y42912D02*
Y38976D01*
Y40944D01*
X194886Y41600D01*
X193574D01*
X192918Y40944D01*
Y38976D01*
X187670Y42912D02*
Y40288D01*
X186358Y38976D01*
X185046Y40288D01*
Y42912D01*
X183079Y38976D02*
X181767D01*
X181111Y39632D01*
Y40944D01*
X181767Y41600D01*
X183079D01*
X183734Y40944D01*
Y39632D01*
X183079Y38976D01*
X179799D02*
X178487D01*
X179143D01*
Y42912D01*
X179799D01*
X175863Y42256D02*
Y41600D01*
X176519D01*
X175207D01*
X175863D01*
Y39632D01*
X175207Y38976D01*
X172583Y41600D02*
X171271D01*
X170615Y40944D01*
Y38976D01*
X172583D01*
X173239Y39632D01*
X172583Y40288D01*
X170615D01*
X167991Y37664D02*
X167335D01*
X166680Y38320D01*
Y41600D01*
X168647D01*
X169303Y40944D01*
Y39632D01*
X168647Y38976D01*
X166680D01*
X163400D02*
X164712D01*
X165368Y39632D01*
Y40944D01*
X164712Y41600D01*
X163400D01*
X162744Y40944D01*
Y40288D01*
X165368D01*
X157496Y42912D02*
X154872D01*
Y42256D01*
X157496Y39632D01*
Y38976D01*
X154872D01*
X152904D02*
X151593D01*
X150937Y39632D01*
Y40944D01*
X151593Y41600D01*
X152904D01*
X153560Y40944D01*
Y39632D01*
X152904Y38976D01*
X149625D02*
Y41600D01*
X147657D01*
X147001Y40944D01*
Y38976D01*
X143721D02*
X145033D01*
X145689Y39632D01*
Y40944D01*
X145033Y41600D01*
X143721D01*
X143065Y40944D01*
Y40288D01*
X145689D01*
X197638Y74802D02*
Y71522D01*
X196982Y70866D01*
X195670D01*
X195014Y71522D01*
Y74802D01*
X193702Y70866D02*
X192390D01*
X193046D01*
Y74802D01*
X193702Y74146D01*
X205709Y122047D02*
Y125983D01*
X203741D01*
X203085Y125327D01*
Y124015D01*
X203741Y123359D01*
X205709D01*
X204397D02*
X203085Y122047D01*
X201773D02*
X200461D01*
X201117D01*
Y125983D01*
X201773Y125327D01*
X205709Y133857D02*
Y129921D01*
X203741D01*
X203085Y130577D01*
Y133201D01*
X203741Y133857D01*
X205709D01*
X201773Y133201D02*
X201117Y133857D01*
X199805D01*
X199149Y133201D01*
Y132545D01*
X199805Y131889D01*
X200461D01*
X199805D01*
X199149Y131233D01*
Y130577D01*
X199805Y129921D01*
X201117D01*
X201773Y130577D01*
X180709Y86101D02*
Y82165D01*
X178741D01*
X178085Y82821D01*
Y85445D01*
X178741Y86101D01*
X180709D01*
X174149Y82165D02*
X176773D01*
X174149Y84789D01*
Y85445D01*
X174805Y86101D01*
X176117D01*
X176773Y85445D01*
X164764Y82381D02*
Y78445D01*
X162796D01*
X162140Y79101D01*
Y81725D01*
X162796Y82381D01*
X164764D01*
X160828Y78445D02*
X159516D01*
X160172D01*
Y82381D01*
X160828Y81725D01*
X183990Y100918D02*
X184646Y101574D01*
X185958D01*
X186614Y100918D01*
Y98294D01*
X185958Y97638D01*
X184646D01*
X183990Y98294D01*
X182678Y100918D02*
X182023Y101574D01*
X180711D01*
X180055Y100918D01*
Y100262D01*
X180711Y99606D01*
X181367D01*
X180711D01*
X180055Y98950D01*
Y98294D01*
X180711Y97638D01*
X182023D01*
X182678Y98294D01*
X220998Y115484D02*
X221654Y116140D01*
X222966D01*
X223622Y115484D01*
Y112861D01*
X222966Y112205D01*
X221654D01*
X220998Y112861D01*
X217062Y112205D02*
X219686D01*
X217062Y114829D01*
Y115484D01*
X217718Y116140D01*
X219030D01*
X219686Y115484D01*
X180447Y122374D02*
X181103Y123030D01*
X182415D01*
X183071Y122374D01*
Y119750D01*
X182415Y119095D01*
X181103D01*
X180447Y119750D01*
X179135Y119095D02*
X177823D01*
X178479D01*
Y123030D01*
X179135Y122374D01*
D53*
X120472Y97638D02*
Y101574D01*
X118505Y103541D01*
X116537Y101574D01*
Y97638D01*
Y100590D01*
X120472D01*
X110633Y102558D02*
X111617Y103541D01*
X113585D01*
X114569Y102558D01*
Y98622D01*
X113585Y97638D01*
X111617D01*
X110633Y98622D01*
X102762Y97638D02*
Y103541D01*
X99810D01*
X98826Y102558D01*
Y100590D01*
X99810Y99606D01*
X102762D01*
X95874Y97638D02*
X93906D01*
X92922Y98622D01*
Y100590D01*
X93906Y101574D01*
X95874D01*
X96858Y100590D01*
Y98622D01*
X95874Y97638D01*
X90954Y101574D02*
Y98622D01*
X89970Y97638D01*
X88987Y98622D01*
X88003Y97638D01*
X87019Y98622D01*
Y101574D01*
X82099Y97638D02*
X84067D01*
X85051Y98622D01*
Y100590D01*
X84067Y101574D01*
X82099D01*
X81115Y100590D01*
Y99606D01*
X85051D01*
X79147Y101574D02*
Y97638D01*
Y99606D01*
X78163Y100590D01*
X77179Y101574D01*
X76195D01*
X63404Y102558D02*
X64388Y103541D01*
X66356D01*
X67340Y102558D01*
Y101574D01*
X66356Y100590D01*
X64388D01*
X63404Y99606D01*
Y98622D01*
X64388Y97638D01*
X66356D01*
X67340Y98622D01*
X61436Y101574D02*
Y98622D01*
X60453Y97638D01*
X59469Y98622D01*
X58485Y97638D01*
X57501Y98622D01*
Y101574D01*
X55533Y97638D02*
X53565D01*
X54549D01*
Y101574D01*
X55533D01*
X49629Y102558D02*
Y101574D01*
X50613D01*
X48645D01*
X49629D01*
Y98622D01*
X48645Y97638D01*
X41758Y101574D02*
X44710D01*
X45693Y100590D01*
Y98622D01*
X44710Y97638D01*
X41758D01*
X39790Y103541D02*
Y97638D01*
Y100590D01*
X38806Y101574D01*
X36838D01*
X35854Y100590D01*
Y97638D01*
X191340Y51376D02*
X192324Y52360D01*
X194292D01*
X195276Y51376D01*
Y47441D01*
X194292Y46457D01*
X192324D01*
X191340Y47441D01*
X188388Y50392D02*
X186420D01*
X185436Y49409D01*
Y46457D01*
X188388D01*
X189372Y47441D01*
X188388Y48425D01*
X185436D01*
X183468Y50392D02*
Y47441D01*
X182484Y46457D01*
X179533D01*
Y50392D01*
X176581Y51376D02*
Y50392D01*
X177565D01*
X175597D01*
X176581D01*
Y47441D01*
X175597Y46457D01*
X172645D02*
X170677D01*
X171661D01*
Y50392D01*
X172645D01*
X166742Y46457D02*
X164774D01*
X163790Y47441D01*
Y49409D01*
X164774Y50392D01*
X166742D01*
X167726Y49409D01*
Y47441D01*
X166742Y46457D01*
X161822D02*
Y50392D01*
X158870D01*
X157886Y49409D01*
Y46457D01*
X155918Y48425D02*
Y53344D01*
Y47441D02*
Y46457D01*
M02*
